<svg width="27" height="27" viewBox="0 0 27 27" fill="none" xmlns="http://www.w3.org/2000/svg">
<path d="M23.8359 4.21875H3.16406C3.04805 4.21875 2.95312 4.31367 2.95312 4.42969V6.11719C2.95312 6.2332 3.04805 6.32812 3.16406 6.32812H23.8359C23.952 6.32812 24.0469 6.2332 24.0469 6.11719V4.42969C24.0469 4.31367 23.952 4.21875 23.8359 4.21875ZM23.8359 20.6719H3.16406C3.04805 20.6719 2.95312 20.7668 2.95312 20.8828V22.5703C2.95312 22.6863 3.04805 22.7812 3.16406 22.7812H23.8359C23.952 22.7812 24.0469 22.6863 24.0469 22.5703V20.8828C24.0469 20.7668 23.952 20.6719 23.8359 20.6719ZM23.8359 12.4453H3.16406C3.04805 12.4453 2.95312 12.5402 2.95312 12.6562V14.3438C2.95312 14.4598 3.04805 14.5547 3.16406 14.5547H23.8359C23.952 14.5547 24.0469 14.4598 24.0469 14.3438V12.6562C24.0469 12.5402 23.952 12.4453 23.8359 12.4453Z" fill="#1C1C1E"/>
</svg>
